<svg width="16" height="16" viewBox="0 0 16 16" fill="none" xmlns="http://www.w3.org/2000/svg">
<path d="M8 0C12.4187 0 16 3.58204 16 8C16 12.4187 12.4187 16 8 16C3.58204 16 0 12.4183 0 8C0 3.58204 3.58204 0 8 0Z" fill="white"/>
<path d="M8.29488 8.56491H11.3348C11.3996 8.56491 11.4302 8.56491 11.4348 8.47995C11.4597 8.17071 11.4597 7.85966 11.4348 7.55006C11.4348 7.48994 11.405 7.4651 11.3398 7.4651H5.28993C5.21505 7.4651 5.19489 7.48994 5.19489 7.56014V8.45007C5.19489 8.56491 5.19489 8.56491 5.31477 8.56491H8.29488ZM11.0953 6.42505C11.104 6.40237 11.104 6.37753 11.0953 6.35521C11.0446 6.24469 10.9845 6.13921 10.9146 6.04021C10.8095 5.871 10.6857 5.71512 10.5445 5.57508C10.4779 5.49048 10.4009 5.41452 10.3145 5.35008C9.88178 4.9818 9.36733 4.72115 8.81436 4.59011C8.53536 4.52747 8.25024 4.49759 7.9644 4.50011H5.27949C5.20461 4.50011 5.19453 4.52999 5.19453 4.59515V6.36997C5.19453 6.44485 5.19453 6.46501 5.28957 6.46501H11.0593C11.0593 6.46501 11.1094 6.45493 11.1195 6.42505H11.095H11.0953ZM11.0953 9.60496C11.0104 9.5956 10.9247 9.5956 10.8397 9.60496H5.29497C5.22009 9.60496 5.19489 9.60496 5.19489 9.70504V11.4403C5.19489 11.5202 5.19489 11.5403 5.29497 11.5403H7.85495C7.97736 11.5497 8.09976 11.5411 8.21964 11.5155C8.59116 11.4889 8.95657 11.4082 9.30505 11.2754C9.43177 11.2315 9.55417 11.1742 9.66973 11.1055H9.70465C10.3048 10.7933 10.7922 10.303 11.0997 9.70108C11.0997 9.70108 11.1346 9.62548 11.0953 9.60568V9.60496ZM4.19012 12.44V12.4101V11.2451V10.8502V9.67516C4.19012 9.61 4.19012 9.60028 4.1102 9.60028H3.02515C2.96503 9.60028 2.94019 9.60028 2.94019 9.52036V8.57031H4.10012C4.16492 8.57031 4.19012 8.57031 4.19012 8.48535V7.54538C4.19012 7.48526 4.19012 7.4705 4.1102 7.4705H3.02515C2.96503 7.4705 2.94019 7.4705 2.94019 7.39058V6.51073C2.94019 6.45565 2.94019 6.44089 3.02011 6.44089H4.09508C4.16996 6.44089 4.19012 6.44089 4.19012 6.34585V3.65086C4.19012 3.57094 4.19012 3.55078 4.2902 3.55078H8.04C8.31216 3.56158 8.58252 3.59146 8.85 3.64078C9.40117 3.74266 9.93074 3.93959 10.4149 4.22075C10.7361 4.40975 11.0316 4.63799 11.2948 4.90079C11.4928 5.10636 11.6714 5.32884 11.8298 5.56572C11.9871 5.80584 12.1178 6.06253 12.2204 6.33073C12.233 6.40057 12.2999 6.44773 12.3698 6.43585H13.2647C13.3796 6.43585 13.3796 6.43585 13.3846 6.54601V7.3661C13.3846 7.44602 13.3547 7.46618 13.2744 7.46618H12.5843C12.5145 7.46618 12.4943 7.46618 12.4994 7.55618C12.5267 7.86074 12.5267 8.16639 12.4994 8.47095C12.4994 8.55591 12.4994 8.56599 12.5948 8.56599H13.3842C13.4192 8.61099 13.3842 8.65599 13.3842 8.70135C13.3893 8.75931 13.3893 8.81799 13.3842 8.87596V9.48112C13.3842 9.56608 13.3594 9.59128 13.2842 9.59128H12.3392C12.2733 9.57868 12.2092 9.6208 12.1941 9.68632C11.9691 10.2713 11.6091 10.7959 11.1439 11.2163C10.974 11.3693 10.7955 11.5133 10.609 11.6462C10.4088 11.7614 10.2141 11.8813 10.0089 11.9763C9.63121 12.1462 9.23521 12.2715 8.82876 12.3511C8.44284 12.4202 8.05152 12.4515 7.65875 12.4461H4.18868V12.4411L4.19012 12.44Z" fill="#29262F"/>
</svg>
