<svg width="16" height="16" viewBox="0 0 16 16" fill="none" xmlns="http://www.w3.org/2000/svg">
<path fill-rule="evenodd" clip-rule="evenodd" d="M12 7C12.5304 7 13.0391 7.21071 13.4142 7.58579C13.7893 7.96086 14 8.46957 14 9V13C14 13.5304 13.7893 14.0391 13.4142 14.4142C13.0391 14.7893 12.5304 15 12 15H4C3.46957 15 2.96086 14.7893 2.58579 14.4142C2.21071 14.0391 2 13.5304 2 13V9C2 8.46957 2.21071 7.96086 2.58579 7.58579C2.96086 7.21071 3.46957 7 4 7V5C4 3.93913 4.42143 2.92172 5.17157 2.17157C5.92172 1.42143 6.93913 1 8 1C9.06087 1 10.0783 1.42143 10.8284 2.17157C11.5786 2.92172 12 3.93913 12 5V7ZM8 2.33333C8.70724 2.33333 9.38552 2.61428 9.88562 3.11438C10.3857 3.61448 10.6667 4.29276 10.6667 5V7H5.33333V5C5.33333 4.29276 5.61428 3.61448 6.11438 3.11438C6.61448 2.61428 7.29276 2.33333 8 2.33333ZM12 8.33333H4C3.82319 8.33333 3.65362 8.40357 3.5286 8.5286C3.40357 8.65362 3.33333 8.82319 3.33333 9V13C3.33333 13.1768 3.40357 13.3464 3.5286 13.4714C3.65362 13.5964 3.82319 13.6667 4 13.6667H12C12.1768 13.6667 12.3464 13.5964 12.4714 13.4714C12.5964 13.3464 12.6667 13.1768 12.6667 13V9C12.6667 8.82319 12.5964 8.65362 12.4714 8.5286C12.3464 8.40357 12.1768 8.33333 12 8.33333Z" fill="white"/>
</svg>
