<svg width="16" height="16" viewBox="0 0 16 16" fill="none" xmlns="http://www.w3.org/2000/svg">
<path fill-rule="evenodd" clip-rule="evenodd" d="M12.6667 4.66663H11.3333C11.3333 3.95938 11.0524 3.2811 10.5523 2.78101C10.0522 2.28091 9.37391 1.99996 8.66667 1.99996C7.95942 1.99996 7.28115 2.28091 6.78105 2.78101C6.28095 3.2811 6 3.95938 6 4.66663V6.66663H12C12.5304 6.66663 13.0391 6.87734 13.4142 7.25241C13.7893 7.62749 14 8.13619 14 8.66663V12.6666C14 13.1971 13.7893 13.7058 13.4142 14.0808C13.0391 14.4559 12.5304 14.6666 12 14.6666H4C3.46957 14.6666 2.96086 14.4559 2.58579 14.0808C2.21071 13.7058 2 13.1971 2 12.6666V8.66663C2 8.13619 2.21071 7.62749 2.58579 7.25241C2.96086 6.87734 3.46957 6.66663 4 6.66663H4.66667V4.66663C4.66667 3.60576 5.08809 2.58834 5.83824 1.8382C6.58839 1.08805 7.6058 0.666626 8.66667 0.666626C9.72753 0.666626 10.7449 1.08805 11.4951 1.8382C12.2452 2.58834 12.6667 3.60576 12.6667 4.66663ZM12 7.99996H4C3.82319 7.99996 3.65362 8.0702 3.5286 8.19522C3.40357 8.32025 3.33333 8.48982 3.33333 8.66663V12.6666C3.33333 12.8434 3.40357 13.013 3.5286 13.138C3.65362 13.2631 3.82319 13.3333 4 13.3333H12C12.1768 13.3333 12.3464 13.2631 12.4714 13.138C12.5964 13.013 12.6667 12.8434 12.6667 12.6666V8.66663C12.6667 8.48982 12.5964 8.32025 12.4714 8.19522C12.3464 8.0702 12.1768 7.99996 12 7.99996Z" fill="white"/>
</svg>
