<svg width="16" height="16" viewBox="0 0 16 16" fill="none" xmlns="http://www.w3.org/2000/svg">
<path d="M8 16C12.4183 16 16 12.4183 16 8C16 3.58172 12.4183 0 8 0C3.58172 0 0 3.58172 0 8C0 12.4183 3.58172 16 8 16Z" fill="white"/>
<path d="M6.5 13.5625C6.5 13.75 6.35 13.8562 6.175 13.8C3.75 13.025 2 10.7625 2 8.08122C2 5.40622 3.75 3.13747 6.175 2.36247C6.35625 2.30622 6.5 2.41247 6.5 2.59997V3.06872C6.5 3.19372 6.40625 3.33747 6.2875 3.38122C4.36875 4.08747 3 5.93122 3 8.08122C3 10.2375 4.36875 12.075 6.2875 12.775C6.40625 12.8187 6.5 12.9625 6.5 13.0875V13.5625Z" fill="#29262F"/>
<path d="M8.50003 11.8313C8.50003 11.9688 8.38753 12.0813 8.25003 12.0813H7.75003C7.61253 12.0813 7.50003 11.9688 7.50003 11.8313V11.0438C6.40628 10.8938 5.87503 10.2875 5.73128 9.45005C5.70628 9.3063 5.81878 9.1813 5.96253 9.1813H6.53128C6.65003 9.1813 6.75003 9.2688 6.77503 9.3813C6.88128 9.87505 7.16878 10.2563 8.04378 10.2563C8.68753 10.2563 9.15003 9.8938 9.15003 9.3563C9.15003 8.8188 8.88128 8.61255 7.93128 8.4563C6.53128 8.2688 5.86878 7.8438 5.86878 6.75005C5.86878 5.9063 6.51253 5.2438 7.50003 5.1063V4.3313C7.50003 4.1938 7.61253 4.0813 7.75003 4.0813H8.25003C8.38753 4.0813 8.50003 4.1938 8.50003 4.3313V5.12505C9.30628 5.2688 9.81878 5.72505 9.98753 6.48755C10.0188 6.6313 9.90628 6.76255 9.75628 6.76255H9.23128C9.11878 6.76255 9.02503 6.68755 8.99378 6.5813C8.85003 6.10005 8.50628 5.88755 7.90628 5.88755C7.24378 5.88755 6.90003 6.2063 6.90003 6.6563C6.90003 7.1313 7.09378 7.3688 8.11253 7.51255C9.48753 7.70005 10.2 8.0938 10.2 9.26255C10.2 10.15 9.53753 10.8688 8.50628 11.0313V11.8313H8.50003Z" fill="#29262F"/>
<path d="M9.825 13.8C9.64375 13.8563 9.5 13.75 9.5 13.5625V13.0938C9.5 12.9563 9.58125 12.825 9.7125 12.7813C11.625 12.0813 13 10.2375 13 8.08754C13 5.93129 11.6312 4.09379 9.7125 3.39379C9.59375 3.35004 9.5 3.20629 9.5 3.08129V2.61254C9.5 2.42504 9.65 2.31879 9.825 2.37504C12.25 3.13754 14 5.40629 14 8.08129C14 10.7625 12.25 13.025 9.825 13.8Z" fill="#29262F"/>
</svg>
