<svg width="16" height="14" viewBox="0 0 16 14" fill="none" xmlns="http://www.w3.org/2000/svg">
<g clip-path="url(#clip0)">
<path fill-rule="evenodd" clip-rule="evenodd" d="M2.93033 0.10913L0.0129705 6.23705C0.00186909 6.25984 -0.00164887 6.28559 0.00293107 6.31053C0.00751101 6.33546 0.0199486 6.35828 0.0384249 6.37564L7.91752 13.9257C7.9399 13.9472 7.96971 13.9592 8.00072 13.9592C8.03172 13.9592 8.06153 13.9472 8.08391 13.9257L15.963 6.37611C15.9815 6.35875 15.9939 6.33593 15.9985 6.311C16.0031 6.28606 15.9996 6.26032 15.9885 6.23752L13.0711 0.109602C13.0617 0.0890217 13.0465 0.0715877 13.0275 0.0593835C13.0084 0.0471792 12.9863 0.040721 12.9636 0.0407806H3.03875C3.01601 0.0404977 2.99367 0.0468004 2.97444 0.0589283C2.9552 0.0710563 2.93988 0.0884914 2.93033 0.10913Z" fill="white"/>
<path fill-rule="evenodd" clip-rule="evenodd" d="M9.01225 6.86634C8.95568 6.87058 8.66343 6.88802 8.01151 6.88802C7.493 6.88802 7.12485 6.87247 6.99569 6.86634C4.99186 6.77819 3.49618 6.42937 3.49618 6.01173C3.49618 5.59409 4.99186 5.24574 6.99569 5.15618V6.51893C7.12674 6.52836 7.50195 6.55051 8.02047 6.55051C8.64269 6.55051 8.95427 6.52459 9.01036 6.5194V5.15712C11.01 5.24621 12.5023 5.59503 12.5023 6.01173C12.5023 6.42843 11.0104 6.77725 9.01036 6.86587L9.01225 6.86634ZM9.01225 5.01618V3.79672H11.8028V1.93713H4.20513V3.79672H6.99522V5.01571C4.72742 5.11988 3.02197 5.5691 3.02197 6.10742C3.02197 6.64573 4.72742 7.09449 6.99522 7.19913V11.1069H9.01178V7.19772C11.2744 7.09354 12.977 6.64479 12.977 6.10695C12.977 5.5691 11.2758 5.12035 9.01178 5.01571L9.01225 5.01618Z" fill="#29262F"/>
</g>
<defs>
<clipPath id="clip0">
<rect width="16" height="13.9184" fill="white" transform="translate(0 0.0407715)"/>
</clipPath>
</defs>
</svg>
