<svg width="24" height="24" viewBox="0 0 24 24" fill="none" xmlns="http://www.w3.org/2000/svg">
<path d="M12 24C18.6274 24 24 18.6274 24 12C24 5.37258 18.6274 0 12 0C5.37258 0 0 5.37258 0 12C0 18.6274 5.37258 24 12 24Z" fill="white"/>
<path d="M9.75 20.3437C9.75 20.625 9.525 20.7843 9.2625 20.7C5.625 19.5375 3 16.1437 3 12.1218C3 8.10933 5.625 4.7062 9.2625 3.5437C9.53438 3.45933 9.75 3.6187 9.75 3.89995V4.60308C9.75 4.79058 9.60938 5.0062 9.43125 5.07183C6.55312 6.1312 4.5 8.89682 4.5 12.1218C4.5 15.3562 6.55312 18.1124 9.43125 19.1624C9.60938 19.2281 9.75 19.4437 9.75 19.6312V20.3437Z" fill="#29262F"/>
<path d="M12.7499 17.7469C12.7499 17.9532 12.5812 18.1219 12.3749 18.1219H11.6249C11.4187 18.1219 11.2499 17.9532 11.2499 17.7469V16.5657C9.60929 16.3407 8.81242 15.4313 8.59679 14.1751C8.55929 13.9594 8.72804 13.7719 8.94367 13.7719H9.79679C9.97492 13.7719 10.1249 13.9032 10.1624 14.0719C10.3218 14.8126 10.753 15.3844 12.0655 15.3844C13.0312 15.3844 13.7249 14.8407 13.7249 14.0344C13.7249 13.2282 13.3218 12.9188 11.8968 12.6844C9.79679 12.4032 8.80304 11.7657 8.80304 10.1251C8.80304 8.85945 9.76867 7.8657 11.2499 7.65945V6.49695C11.2499 6.2907 11.4187 6.12195 11.6249 6.12195H12.3749C12.5812 6.12195 12.7499 6.2907 12.7499 6.49695V7.68757C13.9593 7.9032 14.728 8.58757 14.9812 9.73132C15.028 9.94695 14.8593 10.1438 14.6343 10.1438H13.8468C13.678 10.1438 13.5374 10.0313 13.4905 9.87195C13.2749 9.15007 12.7593 8.83132 11.8593 8.83132C10.8655 8.83132 10.3499 9.30945 10.3499 9.98445C10.3499 10.6969 10.6405 11.0532 12.1687 11.2688C14.2312 11.5501 15.2999 12.1407 15.2999 13.8938C15.2999 15.2251 14.3062 16.3032 12.7593 16.5469V17.7469H12.7499Z" fill="#29262F"/>
<path d="M14.7375 20.7C14.4656 20.7844 14.25 20.625 14.25 20.3438V19.6406C14.25 19.4344 14.3719 19.2375 14.5687 19.1719C17.4375 18.1219 19.5 15.3563 19.5 12.1313C19.5 8.89687 17.4469 6.14062 14.5687 5.09062C14.3906 5.025 14.25 4.80937 14.25 4.62187V3.91875C14.25 3.6375 14.475 3.47812 14.7375 3.5625C18.375 4.70625 21 8.10938 21 12.1219C21 16.1438 18.375 19.5375 14.7375 20.7Z" fill="#29262F"/>
</svg>
