<svg width="24" height="21" viewBox="0 0 24 21" fill="none" xmlns="http://www.w3.org/2000/svg">
<g clip-path="url(#clip0)">
<path fill-rule="evenodd" clip-rule="evenodd" d="M4.39501 0.102539L0.0189675 9.29442C0.00231535 9.32861 -0.00296159 9.36723 0.00390832 9.40463C0.0107782 9.44204 0.0294346 9.47626 0.0571491 9.5023L11.8758 20.8274C11.9094 20.8596 11.9541 20.8776 12.0006 20.8776C12.0471 20.8776 12.0918 20.8596 12.1254 20.8274L23.944 9.50301C23.9717 9.47697 23.9904 9.44274 23.9973 9.40534C24.0041 9.36794 23.9989 9.32932 23.9822 9.29513L19.6062 0.103246C19.592 0.0723754 19.5693 0.0462244 19.5407 0.027918C19.5121 0.00961164 19.4789 -7.57261e-05 19.4449 1.36834e-05H4.55764C4.52353 -0.000410672 4.49002 0.00904334 4.46117 0.0272353C4.43231 0.0454272 4.40933 0.0715799 4.39501 0.102539Z" fill="white"/>
<path fill-rule="evenodd" clip-rule="evenodd" d="M13.5184 10.2383C13.4335 10.2447 12.9951 10.2708 12.0173 10.2708C11.2395 10.2708 10.6873 10.2475 10.4935 10.2383C7.48779 10.1061 5.24427 9.58284 5.24427 8.95638C5.24427 8.32991 7.48779 7.80739 10.4935 7.67305V9.71718C10.6901 9.73132 11.2529 9.76455 12.0307 9.76455C12.964 9.76455 13.4314 9.72567 13.5155 9.71789V7.67446C16.5149 7.8081 18.7535 8.33133 18.7535 8.95638C18.7535 9.58142 16.5156 10.1047 13.5155 10.2376L13.5184 10.2383ZM13.5184 7.46305V5.63386H17.7042V2.84448H6.3077V5.63386H10.4928V7.46234C7.09113 7.6186 4.53296 8.29244 4.53296 9.09991C4.53296 9.90738 7.09113 10.5805 10.4928 10.7375V16.5991H13.5177V10.7354C16.9116 10.5791 19.4655 9.90597 19.4655 9.0992C19.4655 8.29244 16.9137 7.61931 13.5177 7.46234L13.5184 7.46305Z" fill="#29262F"/>
</g>
<defs>
<clipPath id="clip0">
<rect width="24" height="20.8776" fill="white"/>
</clipPath>
</defs>
</svg>
